<?xml version="1.0" encoding="UTF-8"?>
<!DOCTYPE svg PUBLIC "-//W3C//DTD SVG 1.1 Tiny//EN" "http://www.w3.org/Graphics/SVG/1.1/DTD/svg11-tiny.dtd">
<svg width="16" height="16" viewBox="0 0 16 16">
<polygon fill="#A2C2DD" points="8.984,14.184 2.357,12.119 2.211,9.661 8.961,11.244 "/>
<polygon fill="#CEE1EF" points="14.003,8.848 6.92,8.078 2.211,9.66 8.92,11.25 "/>
<polygon fill="#496DA2" points="8.984,14.184 13.899,11.202 14.003,8.827 8.95,11.244 "/>
<polygon fill="#CEE1EF" points="14.107,2.749 6.79,1.816 1.892,3.293 9.003,4.567 "/>
<polygon fill="#496DA2" points="9.033,4.561 4.055,8.145 4.04,9.613 8.88,10.725 12.415,8.988 12.415,8.729 13.961,7.978 14.086,2.749 "/>
<polygon fill="#A2C2DD" points="9.067,10.355 2.205,8.687 1.892,3.293 9.045,4.562 "/>
<polygon fill="#496DA2" points="8.072,9.375 2.924,8.12 2.654,4.211 8.016,5.179 "/>
</svg>