<?xml version="1.0" encoding="UTF-8"?>
<!DOCTYPE svg PUBLIC "-//W3C//DTD SVG 1.1 Tiny//EN" "http://www.w3.org/Graphics/SVG/1.1/DTD/svg11-tiny.dtd">
<svg width="44" height="22" viewBox="29 27.393 44 22">
<path d="M57.641,35.668c-3.277,0-5.934,2.657-5.934,5.934c0,3.273,2.656,5.932,5.934,5.932c3.275,0,5.933-2.656,5.933-5.932 C63.572,38.325,60.916,35.668,57.641,35.668z M53.275,43.034v-2.865h8.729v2.865H53.275z"/>
<path d="M40.973,38.393c0.957-0.958,4-4,4-4l-7-7v8l-3-3l-1.375,1.375c0,0,3.092,3.094,4.375,4.375v0.5 c-1.283,1.281-4.375,4.375-4.375,4.375l1.375,1.375l3-3v8l7-7C44.973,42.393,41.93,39.352,40.973,38.393z M42.223,34.393l-2.25,2.25 v-4.5L42.223,34.393z M39.973,44.643v-4.5c0.853,0.854,1.791,1.79,2.25,2.25L39.973,44.643z"/>
</svg>