<?xml version="1.0" encoding="UTF-8"?>
<!DOCTYPE svg PUBLIC "-//W3C//DTD SVG 1.1 Tiny//EN" "http://www.w3.org/Graphics/SVG/1.1/DTD/svg11-tiny.dtd">
<svg baseProfile="tiny" height="16px" version="1.1" viewBox="-0.136 0.042 16 16" width="16px" x="0px" xmlns="http://www.w3.org/2000/svg" xmlns:xlink="http://www.w3.org/1999/xlink" y="0px">
<rect fill="none" height="16" width="16"/>
<polygon fill="#CEE1EF" points="6.074,6.093 13.66,7.63 12.829,8.118 5.254,6.401 "/>
<polygon fill="#496DA2" points="9.594,12.813 9.579,11.876 12.829,8.118 13.647,7.594 13.572,9.055 "/>
<polygon fill="#A2C2DD" points="12.829,8.118 5.254,6.401 1.803,9.365 9.579,11.876 "/>
<polygon fill="#6695BD" points="9.579,11.876 1.803,9.365 1.867,9.922 9.594,12.813 "/>
<polygon fill="#496DA2" points="5.898,6.707 5.976,7.194 5.337,7.822 5.257,7.338 "/>
<polygon fill="#6695BD" points="5.257,7.338 5.341,7.827 4.413,7.575 4.328,7.091 "/>
<polygon fill="#E1EBF4" points="5.898,6.707 5.257,7.338 4.328,7.091 4.997,6.509 "/>
<polygon fill="#496DA2" points="7.24,7.044 7.318,7.532 6.679,8.16 6.599,7.676 "/>
<polygon fill="#6695BD" points="6.599,7.676 6.683,8.165 5.755,7.912 5.67,7.429 "/>
<polygon fill="#E1EBF4" points="7.24,7.044 6.599,7.676 5.67,7.429 6.327,6.814 "/>
<polygon fill="#496DA2" points="8.649,7.428 8.727,7.916 8.088,8.544 8.008,8.061 "/>
<polygon fill="#6695BD" points="8.008,8.061 8.092,8.549 7.164,8.296 7.079,7.813 "/>
<polygon fill="#E1EBF4" points="8.649,7.428 8.008,8.061 7.079,7.813 7.736,7.199 "/>
<polygon fill="#496DA2" points="10.118,7.817 10.196,8.305 9.557,8.932 9.477,8.449 "/>
<polygon fill="#6695BD" points="9.477,8.449 9.561,8.938 8.633,8.685 8.547,8.201 "/>
<polygon fill="#E1EBF4" points="10.118,7.817 9.477,8.449 8.547,8.201 9.206,7.588 "/>
<polygon fill="#496DA2" points="11.666,8.188 11.746,8.688 11.091,9.331 11.01,8.835 "/>
<polygon fill="#6695BD" points="11.01,8.835 11.096,9.336 10.145,9.078 10.058,8.583 "/>
<polygon fill="#E1EBF4" points="11.666,8.188 11.01,8.835 10.058,8.583 10.731,7.954 "/>
<polygon fill="#496DA2" points="4.943,7.632 5.021,8.119 4.383,8.748 4.303,8.264 "/>
<polygon fill="#6695BD" points="4.303,8.264 4.387,8.752 3.459,8.5 3.374,8.016 "/>
<polygon fill="#E1EBF4" points="4.943,7.632 4.303,8.264 3.374,8.016 4.031,7.402 "/>
<polygon fill="#496DA2" points="3.935,8.55 4.013,9.038 3.374,9.667 3.294,9.182 "/>
<polygon fill="#6695BD" points="3.294,9.182 3.378,9.671 2.45,9.418 2.365,8.935 "/>
<polygon fill="#E1EBF4" points="3.935,8.55 3.294,9.182 2.365,8.935 3.021,8.321 "/>
<polygon fill="#496DA2" points="9.622,10.197 9.706,10.719 9.02,11.393 8.934,10.875 "/>
<polygon fill="#6695BD" points="8.934,10.875 9.024,11.399 8.029,11.127 7.938,10.609 "/>
<polygon fill="#E1EBF4" points="9.622,10.197 8.934,10.875 7.938,10.609 8.642,9.951 "/>
<polygon fill="#496DA2" points="7.983,9.79 8.061,10.277 7.422,10.905 7.342,10.421 "/>
<polygon fill="#6695BD" points="7.338,10.411 7.422,10.9 3.717,9.749 3.645,9.299 "/>
<polygon fill="#E1EBF4" points="7.987,9.784 7.346,10.417 3.631,9.299 4.288,8.686 "/>
<polygon fill="#496DA2" points="6.234,7.96 6.312,8.448 5.673,9.077 5.593,8.592 "/>
<polygon fill="#6695BD" points="5.593,8.592 5.677,9.082 4.75,8.829 4.664,8.345 "/>
<polygon fill="#E1EBF4" points="6.234,7.96 5.593,8.592 4.664,8.345 5.321,7.731 "/>
<polygon fill="#496DA2" points="7.627,8.325 7.705,8.813 7.066,9.44 6.986,8.958 "/>
<polygon fill="#6695BD" points="6.986,8.958 7.071,9.446 6.143,9.194 6.057,8.709 "/>
<polygon fill="#E1EBF4" points="7.627,8.325 6.986,8.958 6.057,8.709 6.714,8.096 "/>
<polygon fill="#496DA2" points="9.112,8.75 9.19,9.237 8.551,9.866 8.471,9.381 "/>
<polygon fill="#6695BD" points="8.471,9.381 8.555,9.87 7.627,9.618 7.542,9.134 "/>
<polygon fill="#E1EBF4" points="9.112,8.75 8.471,9.381 7.542,9.134 8.199,8.52 "/>
<polygon fill="#496DA2" points="10.688,9.131 10.769,9.634 10.111,10.282 10.028,9.783 "/>
<polygon fill="#6695BD" points="10.028,9.783 10.116,10.287 9.159,10.026 9.071,9.528 "/>
<polygon fill="#E1EBF4" points="10.688,9.131 10.028,9.783 9.071,9.528 9.749,8.895 "/>
</svg>
