<?xml version="1.0" encoding="UTF-8"?>
<!DOCTYPE svg PUBLIC "-//W3C//DTD SVG 1.1 Tiny//EN" "http://www.w3.org/Graphics/SVG/1.1/DTD/svg11-tiny.dtd">
<svg baseProfile="tiny" height="32px" version="1.1" viewBox="0 0 32 32" width="32px" x="0px" xmlns="http://www.w3.org/2000/svg" xmlns:xlink="http://www.w3.org/1999/xlink" y="0px">
<path d="M26.311,11.072c0,0,0.286-0.339,0.592-0.702c0.474-0.562,0.661-1.684-0.205-2.409  c-0.373-0.313-2.18-1.827-2.18-1.827c-0.719-0.603-1.797-0.51-2.404,0.206c0,0-0.254,0.303-0.598,0.711  c-0.588-0.285-1.197-0.534-1.83-0.727c0.199-0.36,0.324-0.766,0.324-1.204V3.77c0-0.698-0.281-1.349-0.791-1.833  c-0.475-0.458-1.113-0.712-1.791-0.712h-2.869c-1.422,0-2.58,1.14-2.582,2.541l-0.006,1.343c0,0.432,0.123,0.849,0.328,1.221  c-0.631,0.192-1.234,0.442-1.82,0.726L9.873,6.332C9.871,6.33,8.709,5.726,8.709,5.726c0,0.001-1.246,0.394-1.246,0.394L5.289,7.943  C4.887,8.282,4.68,8.768,4.68,9.256c0,0.387,0.131,0.776,0.398,1.095l0.607,0.729c-1.508,2.091-2.408,4.65-2.408,7.42  c0,7.018,5.707,12.726,12.725,12.726c7.016,0,12.723-5.708,12.723-12.726C28.725,15.727,27.822,13.165,26.311,11.072z" fill-opacity="0.2" stroke-opacity="0.2"/>
<path d="M25.037,11.031l1.1-1.305c0.257-0.305,0.215-0.747-0.086-1.001l-7.906-2.241  c0.51-0.256,0.865-0.768,0.865-1.363V3.77c0-0.42-6.031-0.854-6.033-0.003l-0.006,1.346c0,0.416,0.174,0.82,0.477,1.109  c0.115,0.11-7.516,2.488-7.516,2.488C5.633,8.961,5.594,9.409,5.844,9.708l1.113,1.331c-6.304,7.632-0.87,19.186,9.045,19.186  C25.957,30.225,31.339,18.647,25.037,11.031z" fill-opacity="0.5" stroke-opacity="0.5"/>
<linearGradient gradientUnits="userSpaceOnUse" id="SVGID_1_" x1="15.9907" x2="15.9907" y1="3.6362" y2="7.4279">
<stop offset="0" style="stop-color:#E3E3E3"/>
<stop offset="1" style="stop-color:#404040"/>
</linearGradient>
<polygon fill="url(#SVGID_1_)" points="18.139,6.402 13.834,6.399 13.84,4.682 18.148,4.683 "/>
<linearGradient gradientUnits="userSpaceOnUse" id="SVGID_2_" x1="15.9897" x2="15.9897" y1="1.1694" y2="6.3812">
<stop offset="0" style="stop-color:#E3E3E3"/>
<stop offset="1" style="stop-color:#404040"/>
</linearGradient>
<path d="M14.559,1.225c-0.871,0-1.58,0.691-1.582,1.542l-0.006,1.346c0,0.416,0.174,0.82,0.477,1.109  c0.295,0.282,0.688,0.438,1.105,0.438h2.869c0.875,0,1.588-0.69,1.588-1.54V2.77c0-0.42-0.17-0.813-0.479-1.107  c-0.293-0.281-0.686-0.438-1.104-0.438H14.559z" fill="url(#SVGID_2_)"/>
<linearGradient gradientUnits="userSpaceOnUse" id="SVGID_3_" x1="23.377" x2="23.377" y1="5.6616" y2="12.5607">
<stop offset="0" style="stop-color:#E3E3E3"/>
<stop offset="1" style="stop-color:#404040"/>
</linearGradient>
<path d="M26.051,7.725L23.875,5.9c-0.299-0.251-0.744-0.213-0.998,0.086L20.449,8.87l3.262,2.736l2.426-2.88  c0.121-0.144,0.18-0.33,0.166-0.519C26.285,8.02,26.193,7.845,26.051,7.725z" fill="url(#SVGID_3_)"/>
<linearGradient gradientUnits="userSpaceOnUse" id="SVGID_4_" x1="8.6069" x2="8.6069" y1="5.6465" y2="12.5806">
<stop offset="0" style="stop-color:#E3E3E3"/>
<stop offset="1" style="stop-color:#404040"/>
</linearGradient>
<path d="M11.535,8.877l-2.43-2.903C8.984,5.83,8.813,5.739,8.625,5.723C8.438,5.706,8.25,5.764,8.105,5.886  L5.932,7.709C5.633,7.961,5.594,8.409,5.844,8.708l2.436,2.913L11.535,8.877z" fill="url(#SVGID_4_)"/>
<linearGradient gradientUnits="userSpaceOnUse" id="SVGID_5_" x1="16.0005" x2="16.0005" y1="5.4863" y2="33.038">
<stop offset="0" style="stop-color:#E3E3E3"/>
<stop offset="1" style="stop-color:#404040"/>
</linearGradient>
<path d="M27.725,17.499c0,6.477-5.248,11.726-11.723,11.726c-6.479,0-11.725-5.249-11.725-11.726  c0-6.476,5.246-11.722,11.725-11.722C22.477,5.777,27.725,11.023,27.725,17.499z" fill="url(#SVGID_5_)"/>
<linearGradient gradientUnits="userSpaceOnUse" id="SVGID_6_" x1="16.0005" x2="16.0005" y1="10.6353" y2="34.4321">
<stop offset="0" style="stop-color:#FFFFFF"/>
<stop offset="1" style="stop-color:#B2B2B2"/>
</linearGradient>
<circle cx="16.001" cy="17.499" fill="url(#SVGID_6_)" r="9.714"/>
<linearGradient gradientUnits="userSpaceOnUse" id="SVGID_7_" x1="16.0005" x2="16.0005" y1="35.3066" y2="2.7685">
<stop offset="0" style="stop-color:#E3E3E3"/>
<stop offset="1" style="stop-color:#404040"/>
</linearGradient>
<path d="M5.951,17.499c0-5.552,4.5-10.048,10.051-10.048l0,0c5.549,0,10.045,4.497,10.045,10.048l0,0h0.002  c-0.002,5.551-4.498,10.049-10.047,10.05l0,0C10.451,27.548,5.951,23.05,5.951,17.499L5.951,17.499z M6.621,17.499  c0.008,5.181,4.199,9.37,9.381,9.379l0,0c5.18-0.009,9.367-4.198,9.377-9.379l0,0c-0.01-5.182-4.197-9.372-9.377-9.38l0,0  C10.82,8.127,6.629,12.317,6.621,17.499L6.621,17.499z" fill="url(#SVGID_7_)"/>
<linearGradient gradientUnits="userSpaceOnUse" id="SVGID_8_" x1="20.4492" x2="20.4492" y1="7.4663" y2="52.9759">
<stop offset="0" style="stop-color:#EA2227"/>
<stop offset="0.3116" style="stop-color:#D22024"/>
<stop offset="0.9676" style="stop-color:#94191C"/>
<stop offset="1" style="stop-color:#91191C"/>
</linearGradient>
<path d="M16.045,8.654c-0.016,0-0.029,0.001-0.043,0.002v8.845l5.869,6.652  c1.85-1.623,3.025-3.998,3.025-6.648C24.896,12.625,20.926,8.654,16.045,8.654z" fill="url(#SVGID_8_)"/>
<linearGradient gradientTransform="matrix(1 -0.0026 0.0026 1 -2.9697 1.1626)" gradientUnits="userSpaceOnUse" id="SVGID_9_" x1="17.6729" x2="25.3105" y1="19.2891" y2="19.2891">
<stop offset="0" style="stop-color:#404040"/>
<stop offset="1" style="stop-color:#000000"/>
</linearGradient>
<path d="M22.4,23.839l-5.23-5.852c0.063-0.15,0.098-0.313,0.098-0.486c-0.002-0.695-0.568-1.259-1.264-1.257  c-0.699,0.001-1.26,0.567-1.258,1.264s0.566,1.259,1.264,1.257c0.129,0,0.252-0.025,0.373-0.063l5.227,5.845L22.4,23.839z" fill="url(#SVGID_9_)"/>
<path d="M14.043,4.598c-0.135-0.129-0.209-0.302-0.209-0.482l0.006-1.348  c0.002-0.376,0.322-0.681,0.719-0.681h2.869c0.191,0,0.375,0.072,0.51,0.201l0.594-0.625c-0.293-0.281-0.686-0.438-1.104-0.438  h-2.869c-0.871,0-1.58,0.691-1.582,1.542l-0.006,1.346c0,0.416,0.174,0.82,0.477,1.109L14.043,4.598z" fill="#FFFFFF" fill-opacity="0.2" stroke-opacity="0.2"/>
<path d="M18.531,1.663l-0.594,0.625c0.135,0.128,0.211,0.3,0.211,0.481v1.349c-0.002,0.374-0.328,0.679-0.727,0.679  h-2.869c-0.191,0-0.375-0.071-0.51-0.2l-0.596,0.624c0.295,0.282,0.688,0.438,1.105,0.438h2.869c0.875,0,1.588-0.69,1.588-1.54V2.77  C19.01,2.35,18.84,1.956,18.531,1.663z" fill-opacity="0.2" stroke-opacity="0.2"/>
<path d="M12.288,9.465c-4.629,2.147-6.305,7.529-4.286,11.802l16.027-7.473  C21.954,9.318,16.695,7.421,12.288,9.465z" fill="#FFFFFF" fill-opacity="0.2" stroke-opacity="0.2"/>
<rect fill="none" height="32" width="32"/>
</svg>
