<?xml version="1.0" encoding="UTF-8"?>
<!DOCTYPE svg PUBLIC "-//W3C//DTD SVG 1.1 Tiny//EN" "http://www.w3.org/Graphics/SVG/1.1/DTD/svg11-tiny.dtd">
<svg width="16" height="16" viewBox="0 0 16 16">
<path d="M12.419,1.676v3.953c-0.055-0.017-0.095-0.048-0.158-0.057 c-0.648-0.09-1.453,0.32-1.798,0.914c-0.345,0.594-0.097,1.148,0.55,1.237c0.648,0.09,1.453-0.319,1.797-0.913 c0.09-0.155,0.136-0.306,0.148-0.448c0.001-0.002,0.002-0.002,0.003-0.005c0-0.144,0-3.131,0-3.131l1.374,0.734V2.826 L12.419,1.676z" fill="#496DA2"/>
<path d="M2.718,6.217C3.72,6.211,4.533,6.235,4.533,6.235l-0.024,5.754 c0,0-1.093,0.005-1.773,0.005C1.32,11.697,1.299,6.572,2.718,6.217z" fill="#A2C2DD"/>
<linearGradient id="_3" gradientUnits="userSpaceOnUse" x1="6.83" y1="3.67" x2="6.83" y2="13.89">
<stop stop-color="#CEE1EF" offset="0"/>
<stop stop-color="#A2C2DD" offset="0.5"/>
<stop stop-color="#496DA2" offset="1"/>
</linearGradient>
<path d="M8.146,3.86H7.216c-0.007,0-0.013,0.008-0.021,0.009 c-0.01,0-0.02-0.009-0.029-0.009c-0.993,0-1.798,2.343-1.798,5.231c0,2.89,0.805,5.231,1.798,5.231c0.016,0,1.006,0,1.006,0 C8.353,14.323,8.327,3.86,8.146,3.86z" fill="url(#_3)"/>
<linearGradient id="_4" gradientUnits="userSpaceOnUse" x1="6.32" y1="9.09" x2="9.91" y2="9.09">
<stop stop-color="#CEE1EF" offset="0"/>
<stop stop-color="#A2C2DD" offset="1"/>
</linearGradient>
<ellipse cx="8.116" cy="9.092" fill="url(#_4)" rx="1.798" ry="5.231"/>
<ellipse cx="8.147" cy="9.092" fill="#A2C2DD" rx="1.529" ry="4.447"/>
<path d="M6.74,10.781C8.343,9.891,8.343,7.898,6.776,7.19C6.598,8.052,6.615,9.66,6.74,10.781z" fill="#496DA2"/>
<path d="M6.121,4.823L3.665,6.235L3.664,6.237c-1.16,0.736-1.16,4.934-0.026,5.709 c0.003,0.008,0.005,0.015,0.008,0.022c0.817,0.466,1.116,0.616,2.476,1.354C4.521,8.883,6.121,4.823,6.121,4.823z" fill="#496DA2"/>
</svg>