<?xml version="1.0" encoding="UTF-8"?>
<!DOCTYPE svg PUBLIC "-//W3C//DTD SVG 1.1 Tiny//EN" "http://www.w3.org/Graphics/SVG/1.1/DTD/svg11-tiny.dtd">
<svg width="16" height="16" viewBox="0 0 16 16">
<linearGradient id="_2" gradientUnits="userSpaceOnUse" x1="7.27" y1="4.59" x2="11.38" y2="9.5">
<stop stop-color="#B3DDFF" offset="0"/>
<stop stop-color="#5AA7E0" offset="0.5"/>
<stop stop-color="#0046B7" offset="1"/>
</linearGradient>
<path fill="url(#_2)" d="M4.252,3.612l1.564-0.828C5.807,2.79,7.711,2.017,9.338,2.44 c1.574,0.409,2.516,1.266,3.422,2.664s1.119,3.848,0.52,5.15c-0.6,1.306-1,1.61-1.438,2.024l-2.045,1.479 c1.652-2.877,1.313-6.031,0.301-7.431C9.084,4.931,6.982,3.093,4.252,3.612z"/>
<circle fill="#B3DDFF" cx="6.872" cy="8.774" r="5.328"/>
<path fill="#0046B7" d="M6.982,13.864c0.629,0.137,1.115-0.256,1.115-0.828c0-0.611-0.486-1.173-1.115-1.287 c-0.617-0.117-1.102,0.26-1.102,0.839C5.881,13.144,6.381,13.733,6.982,13.864z"/>
<path fill="#0046B7" d="M7.867,10.915c0-1.08-0.549-1.78-1.311-2.564C6.113,7.903,5.682,7.513,5.682,6.899 c0-0.701,0.613-1.252,1.361-1.177c0.865,0.083,1.428,0.786,1.441,1.606l1.691,0.184c0.025-1.767-1.352-3.293-3.146-3.421 C5.377,3.96,3.965,5.118,3.965,6.642c0,1.988,1.979,2.213,2.252,3.988L7.867,10.915z"/>
<rect x="9.707" y="1.619" fill="#0046B7" width="1.4" height="2.436"/>
<rect x="11.859" y="3.502" fill="#0046B7" width="2.429" height="1.4"/>
</svg>