<?xml version="1.0" encoding="UTF-8"?>
<!DOCTYPE svg PUBLIC "-//W3C//DTD SVG 1.1 Tiny//EN" "http://www.w3.org/Graphics/SVG/1.1/DTD/svg11-tiny.dtd">
<svg baseProfile="tiny" height="150px" version="1.1" viewBox="0 0 200 150" width="200px" x="0px" xmlns="http://www.w3.org/2000/svg" xmlns:xlink="http://www.w3.org/1999/xlink" y="0px">
<path d="M188,75c0-36.117-39.477-65.5-88-65.5S12,38.883,12,75c0,0.167,0.007,0.333,0.009,0.5  C12.007,75.667,12,75.833,12,76c0,36.117,39.477,65.5,88,65.5s88-29.383,88-65.5c0-0.167-0.007-0.333-0.009-0.5  C187.993,75.333,188,75.167,188,75z" fill-opacity="0.2" stroke-opacity="0.2"/>
<path d="M13,76c0,35.565,39.028,64.5,87,64.5s87-28.935,87-64.5s-39.028-64.5-87-64.5S13,40.435,13,76z" fill-opacity="0.5" stroke-opacity="0.5"/>
<linearGradient gradientUnits="userSpaceOnUse" id="SVGID_1_" x1="100" x2="100" y1="-13.6875" y2="268.3076">
<stop offset="0" style="stop-color:#FFFFFF"/>
<stop offset="1" style="stop-color:#FCBA63"/>
</linearGradient>
<path d="M13,75c0,35.565,39.028,64.5,87,64.5s87-28.935,87-64.5s-39.028-64.5-87-64.5S13,39.435,13,75z" fill="url(#SVGID_1_)"/>
<linearGradient gradientUnits="userSpaceOnUse" id="SVGID_2_" x1="100" x2="100" y1="-63.6826" y2="110.3163">
<stop offset="0" style="stop-color:#FFFFFF"/>
<stop offset="1" style="stop-color:#FCBA63"/>
</linearGradient>
<ellipse cx="100" cy="75" fill="url(#SVGID_2_)" rx="67.5" ry="50.625"/>
<linearGradient gradientUnits="userSpaceOnUse" id="SVGID_3_" x1="100" x2="100" y1="-31.0229" y2="184.9786">
<stop offset="0" style="stop-color:#FFE23D"/>
<stop offset="0.2239" style="stop-color:#FAD337"/>
<stop offset="0.6537" style="stop-color:#EFAB26"/>
<stop offset="1" style="stop-color:#E48717"/>
</linearGradient>
<ellipse cx="100" cy="75" fill="url(#SVGID_3_)" rx="45" ry="33.75"/>
<ellipse cx="100" cy="75" fill="#E48717" rx="22.5" ry="16.875"/>
<rect fill="none" height="150" width="200"/>
</svg>
