<?xml version="1.0" encoding="UTF-8"?>
<!DOCTYPE svg PUBLIC "-//W3C//DTD SVG 1.1 Tiny//EN" "http://www.w3.org/Graphics/SVG/1.1/DTD/svg11-tiny.dtd">
<svg width="13" height="13" viewBox="0 0 13 13">
<path d="M7.313,3.31L4.796,0.792V3.67L3.717,2.59L3.223,3.085c0,0,1.117,1.117,1.574,1.573v0.18 C4.34,5.293,3.223,6.412,3.223,6.412l0.495,0.495l1.079-1.079v2.878l2.517-2.518c0,0-1.094-1.094-1.438-1.438 C6.219,4.404,7.313,3.31,7.313,3.31z M6.325,6.187C6.147,6.365,5.821,6.69,5.516,6.997V5.378 C5.822,5.685,6.159,6.021,6.325,6.187z M5.516,4.119V2.5c0.306,0.306,0.631,0.632,0.809,0.81 C6.159,3.476,5.822,3.813,5.516,4.119z"/>
<path d="M12.823,6.973l-2.517-2.518v2.877l-1.079-1.08L8.732,6.749c0,0,1.117,1.117,1.574,1.573v0.18 c-0.457,0.456-1.574,1.573-1.574,1.573l0.495,0.494l1.079-1.079v2.877l2.517-2.518c0,0-1.094-1.094-1.438-1.438 C11.729,8.067,12.823,6.973,12.823,6.973z M11.834,6.973c-0.166,0.166-0.502,0.502-0.809,0.809V6.164 C11.331,6.47,11.657,6.795,11.834,6.973z M11.834,9.85c-0.178,0.178-0.503,0.504-0.809,0.81V9.042 C11.332,9.348,11.669,9.685,11.834,9.85z"/>
</svg>