<?xml version="1.0" encoding="UTF-8"?>
<!DOCTYPE svg PUBLIC "-//W3C//DTD SVG 1.1 Tiny//EN" "http://www.w3.org/Graphics/SVG/1.1/DTD/svg11-tiny.dtd">
<svg width="16" height="16" viewBox="0 0 16 16">
<path d="M12.527,10.281c0.349-0.349,1.455-1.455,1.455-1.455l-2.545-2.545v3.013l-1.169-1.169 l-0.5,0.5c0,0,1.269,1.269,1.669,1.669v0.025c-0.4,0.4-1.669,1.669-1.669,1.669l0.5,0.5l1.169-1.169v2.962l2.545-2.545 C13.982,11.736,12.876,10.63,12.527,10.281z M12.982,8.827c-0.167,0.167-0.508,0.508-0.818,0.818V8.008 C12.473,8.318,12.802,8.647,12.982,8.827z M12.164,12.554v-1.637c0.31,0.31,0.651,0.651,0.818,0.818 C12.802,11.916,12.473,12.245,12.164,12.554z" fill="#496DA2"/>
<path d="M4.777,10.281c0.349-0.349,1.455-1.455,1.455-1.455L3.687,6.281v3.013L2.518,8.125 l-0.5,0.5c0,0,1.269,1.269,1.669,1.669v0.025c-0.4,0.4-1.669,1.669-1.669,1.669l0.5,0.5l1.169-1.169v2.962l2.545-2.545 C6.232,11.736,5.126,10.63,4.777,10.281z M5.232,8.827C5.064,8.994,4.724,9.335,4.414,9.645V8.008 C4.723,8.318,5.052,8.647,5.232,8.827z M4.414,12.554v-1.637c0.31,0.31,0.651,0.651,0.818,0.818 C5.052,11.916,4.723,12.245,4.414,12.554z" fill="#A2C2DD"/>
<path d="M8.777,5.719c0.349-0.349,1.455-1.455,1.455-1.455L7.687,1.719v3.013L6.518,3.563 l-0.5,0.5c0,0,1.269,1.269,1.669,1.669v0.025c-0.4,0.4-1.669,1.669-1.669,1.669l0.5,0.5l1.169-1.169v2.962l2.545-2.545 C10.232,7.173,9.126,6.067,8.777,5.719z M9.232,4.264C9.064,4.432,8.724,4.772,8.414,5.083V3.446 C8.723,3.755,9.052,4.084,9.232,4.264z M8.414,7.992V6.355c0.31,0.31,0.651,0.651,0.818,0.818 C9.052,7.354,8.723,7.683,8.414,7.992z" fill="#A2C2DD"/>
</svg>