<?xml version="1.0" encoding="UTF-8"?>
<!DOCTYPE svg PUBLIC "-//W3C//DTD SVG 1.1 Tiny//EN" "http://www.w3.org/Graphics/SVG/1.1/DTD/svg11-tiny.dtd">
<svg baseProfile="tiny" height="16px" version="1.1" viewBox="-0.012 -0.038 16 16" width="16px" x="0px" xmlns="http://www.w3.org/2000/svg" xmlns:xlink="http://www.w3.org/1999/xlink" y="0px">
<rect fill="none" height="16" width="16"/>
<polygon fill="#CEE1EF" points="12.87,7.236 12.04,6.979 9.01,8.949 9.976,9.259 "/>
<path d="M5.034,11.765c0.005-0.003,0.011-0.007,0.016-0.009c0.482-0.25,1.362-1.096,1.362-1.096  S3.317,9.071,3.291,9.91c-0.027,0.838,0.465,1.689,1.101,1.897c0.222,0.073,0.43,0.054,0.61-0.031v0.006  C5.012,11.778,5.023,11.77,5.034,11.765z" fill="#496DA2"/>
<path d="M9.994,11.781c0,0-3.284-1.877-3.313-0.95c-0.027,0.928,0.517,1.866,1.218,2.097  c0.249,0.083,0.483,0.062,0.685-0.037v0.015C9.054,12.687,9.994,11.781,9.994,11.781z" fill="#496DA2"/>
<polygon fill="#496DA2" points="9.217,9.008 12.04,6.979 10.879,4.431 8.289,5.777 "/>
<polygon fill="#496DA2" points="10.455,11.982 13.327,9.541 12.861,7.22 9.94,9.219 "/>
<polygon fill="#CEE1EF" points="10.937,4.453 6.985,3.806 4.288,4.797 8.307,5.785 "/>
<polygon fill="#A2C2DD" points="9.16,8.851 9.988,9.212 10.455,11.984 2.051,9.408 2.529,7.396 3.146,7.257 4.261,4.805   8.299,5.779 "/>
<polygon fill="#496DA2" points="4.676,5.74 3.88,7.515 8.339,8.807 7.823,6.486 "/>
</svg>
