<?xml version="1.0" encoding="utf-8"?>
<!-- Generator: Adobe Illustrator 13.0.0, SVG Export Plug-In . SVG Version: 6.00 Build 14948)  -->
<!DOCTYPE svg PUBLIC "-//W3C//DTD SVG 1.1//EN" "http://www.w3.org/Graphics/SVG/1.1/DTD/svg11.dtd">
<svg version="1.1" id="Ebene_1" xmlns="http://www.w3.org/2000/svg" xmlns:xlink="http://www.w3.org/1999/xlink" x="0px" y="0px"
	 width="54px" height="54px" viewBox="0 0 54 54" enable-background="new 0 0 54 54" xml:space="preserve">
<linearGradient id="SVGID_1_" gradientUnits="userSpaceOnUse" x1="18.2432" y1="-6516.127" x2="18.2432" y2="-6462.127" gradientTransform="matrix(1 0 0 -1 8.2573 -6462.627)">
	<stop  offset="0" style="stop-color:#171511"/>
	<stop  offset="0.51" style="stop-color:#2F3838"/>
	<stop  offset="0.51" style="stop-color:#3A4547"/>
	<stop  offset="1" style="stop-color:#5C6869"/>
</linearGradient>
<path fill="url(#SVGID_1_)" d="M53.5,47.072c0,3.535-2.893,6.428-6.429,6.428H5.929c-3.535,0-6.429-2.893-6.429-6.428V5.929
	C-0.5,2.392,2.394-0.5,5.929-0.5h41.143c3.536,0,6.429,2.892,6.429,6.429V47.072z"/>
<linearGradient id="SVGID_2_" gradientUnits="userSpaceOnUse" x1="8.8711" y1="1490.1309" x2="15.9404" y2="1524.4484" gradientTransform="matrix(1 0 0 1 8.2573 -1479.3516)">
	<stop  offset="0" style="stop-color:#CCCFD3"/>
	<stop  offset="0.8146" style="stop-color:#7F848B"/>
	<stop  offset="1" style="stop-color:#5A5D60"/>
</linearGradient>
<path fill="url(#SVGID_2_)" d="M22.764,24.915c-6.442,0-11.667,5.228-11.667,11.666v4.138c0,5.25,23.334,5.25,23.334,0V36.58
	C34.432,30.145,29.207,24.915,22.764,24.915z M22.39,24.097c4.076-0.196,7.325-3.443,7.523-7.517
	c-0.202-3.794-3.308-6.814-7.143-6.812c-3.963,0.007-7.18,3.216-7.18,7.18C15.59,20.788,18.608,23.897,22.39,24.097z"/>
<linearGradient id="SVGID_3_" gradientUnits="userSpaceOnUse" x1="14.4937" y1="1489.9238" x2="14.4937" y2="1498.3613" gradientTransform="matrix(1 0 0 1 8.2573 -1479.3516)">
	<stop  offset="0" style="stop-color:#FFFFFF"/>
	<stop  offset="0.1629" style="stop-color:#FFFFFF"/>
	<stop  offset="0.4554" style="stop-color:#FAFAFA"/>
	<stop  offset="0.8002" style="stop-color:#ECECEC"/>
	<stop  offset="1" style="stop-color:#E0E0E0"/>
</linearGradient>
<path fill="url(#SVGID_3_)" fill-opacity="0.5" d="M22.772,10.573L22.772,10.573c-3.517,0.007-6.378,2.867-6.378,6.376
	c0,1.535,2.63,1.861,5.999,2.062c3.644-0.197,6.714-1.222,6.714-2.425C28.904,13.207,26.131,10.57,22.772,10.573z"/>
<linearGradient id="SVGID_4_" gradientUnits="userSpaceOnUse" x1="24.2915" y1="9332.8164" x2="38.4707" y2="9332.8164" gradientTransform="matrix(1 0 0 1 8.2573 -9317.2422)">
	<stop  offset="0" style="stop-color:#B2B2B2"/>
	<stop  offset="0.5" style="stop-color:#B0B0B0"/>
	<stop  offset="1" style="stop-color:#797878"/>
</linearGradient>
<path fill="url(#SVGID_4_)" d="M37.842,8.488c-0.24,0-0.436,0.195-0.436,0.434v4.395h-4.42c-0.279,0-0.438,0.23-0.438,0.435v3.615
	c0,0.24,0.195,0.436,0.438,0.436h4.42v4.42c0,0.241,0.195,0.437,0.437,0.437h3.616c0.241,0,0.438-0.195,0.438-0.437v-4.42h4.396
	c0.24,0,0.436-0.195,0.436-0.436V13.75c0-0.24-0.194-0.435-0.436-0.435h-4.396V8.921c0-0.243-0.192-0.434-0.438-0.434L37.842,8.488
	L37.842,8.488z"/>
<linearGradient id="SVGID_5_" gradientUnits="userSpaceOnUse" x1="26.6006" y1="-13502.2988" x2="32.5521" y2="-13513.8125" gradientTransform="matrix(1 0 0 -1 8.2573 -13495.9805)">
	<stop  offset="0" style="stop-color:#FFFFFF"/>
	<stop  offset="1" style="stop-color:#D8D8D8"/>
</linearGradient>
<path fill="url(#SVGID_5_)" d="M46.283,17.366h-4.827v4.855h-3.614v-4.855h-4.857v-3.614h4.857V8.921h3.614v4.829h4.827V17.366
	L46.283,17.366z"/>
<linearGradient id="SVGID_6_" gradientUnits="userSpaceOnUse" x1="14.5039" y1="1506.3008" x2="14.5039" y2="1518.3916" gradientTransform="matrix(1 0 0 1 8.2573 -1479.3516)">
	<stop  offset="0" style="stop-color:#E8E7E6"/>
	<stop  offset="0.0056" style="stop-color:#E8E7E6"/>
	<stop  offset="0.8933" style="stop-color:#9B9A9A"/>
	<stop  offset="1" style="stop-color:#9B9A9A"/>
</linearGradient>
<path fill="url(#SVGID_6_)" fill-opacity="0.5" d="M22.402,29.436c-1.952-0.101-3.693-0.981-4.927-2.331
	c-2.824,1.581-4.872,4.385-5.423,7.698c0,2.004,5.314,4.238,10.711,4.238c5.389,0,10.663-2.227,10.708-4.227
	c-0.646-3.938-3.197-6.568-5.682-7.864C26.425,28.396,24.528,29.333,22.402,29.436z"/>
</svg>
