<?xml version="1.0" encoding="UTF-8"?>
<!DOCTYPE svg PUBLIC "-//W3C//DTD SVG 1.1 Tiny//EN" "http://www.w3.org/Graphics/SVG/1.1/DTD/svg11-tiny.dtd">
<svg width="13" height="13" viewBox="0 0 13 13">
<path d="M11.036,3.501V1.162H3.964v2.339h-1V12.5h9.072V3.501H11.036z M10.036,3.417H4.964V2.162h5.072V3.417z M11.036,4.501 V11.5H3.964V4.501H11.036z"/>
<path d="M7.188,8.097C6.851,8.434,6.024,9.261,6.024,9.261L6.39,9.626l0.798-0.798v1.397v0.731L9.05,9.095 c0,0-0.809-0.81-1.064-1.063C8.241,7.776,9.05,6.967,9.05,6.967L7.188,5.104v2.129L6.39,6.435L6.024,6.801 c0,0,0.827,0.827,1.164,1.164V8.097z M8.318,9.095c-0.131,0.132-0.373,0.373-0.599,0.6V8.497 C7.946,8.723,8.196,8.973,8.318,9.095z M8.318,6.967C8.196,7.089,7.946,7.338,7.72,7.565V6.367 C7.946,6.594,8.187,6.834,8.318,6.967z"/>
</svg>