<?xml version="1.0" encoding="UTF-8"?>
<!DOCTYPE svg PUBLIC "-//W3C//DTD SVG 1.1 Tiny//EN" "http://www.w3.org/Graphics/SVG/1.1/DTD/svg11-tiny.dtd">
<svg baseProfile="tiny" height="16px" version="1.1" viewBox="-0.229 -0.035 16 16" width="16px" x="0px" xmlns="http://www.w3.org/2000/svg" xmlns:xlink="http://www.w3.org/1999/xlink" y="0px">
<rect fill="none" height="16" width="16"/>
<path d="M13.5,7.189c0,0-0.349,1.197-0.888,1.922c-0.24,0.323-0.571,0.588-0.871,0.854  c-1.063,0.941-2.06,2.014-3.304,2.723c-0.981,0.559-2.318,0.605-3.391,0.301c-0.287-0.081-0.629-0.232-0.85-0.438  c-0.391-0.365-0.704-0.861-0.886-1.362c-0.199-0.552-0.263-1.1-0.256-1.665c0.011-0.961,5.899-3.915,5.899-3.915L13.5,7.189z" fill="#496DA2"/>
<path d="M13.427,6.034c0,0,0.283,0.698,0.03,1.285c-0.151,0.351-1.001,0.653-1.798,1.124  c-0.536,0.316-1.092,0.838-1.229,1.013c-0.258,0.325-0.797,0.972-1.519,1.516c-0.815,0.613-1.845,1.112-2.588,1.182  c-1.4,0.133-2.174-0.479-2.396-0.669c-0.1-0.086-0.783-0.812-0.87-1.643C3.014,9.421,2.939,8.85,3.07,8.364  c0.182-0.672,0.597-1.209,0.597-1.209L13.427,6.034z" fill="#6695BD"/>
<path d="M13.542,6.64c0,0-0.263,0.361-0.841,0.665c-0.579,0.303-1.473,0.549-2.104,1  c-0.665,0.477-0.634,0.747-1.325,1.41c-0.356,0.342-1.181,1.024-2.082,1.374c-0.852,0.33-1.661,0.293-2.309,0.01  c-0.646-0.283-1.044-0.531-1.33-1.064C3.066,9.132,3.134,7.83,3.735,7.104c0.956-1.155,4.641-2.781,5.79-2.767  c1.148,0.014,3.318,0.521,3.82,1.534C13.62,6.343,13.542,6.64,13.542,6.64z" fill="#E1EBF4"/>
<path d="M11.996,7.569c0,0-2.256-1.45-2.404-1.502C9.443,6.017,7.824,4.74,7.824,4.74L7.682,4.788  c0,0,1.609,1.325,1.83,1.39c0.221,0.063,1.995,1.35,2.17,1.478C11.753,7.707,11.996,7.569,11.996,7.569z" fill="#6695BD"/>
<path d="M12.335,5.036c0,0-0.688,0.147-1.323,0.422C10.444,5.704,9.924,6.074,9.9,6.155  c-0.05,0.172-0.375-0.144-0.375-0.144s0.82-0.505,1.379-0.744c0.558-0.239,1.191-0.348,1.191-0.348L12.335,5.036z" fill="#6695BD"/>
</svg>
