<?xml version="1.0" encoding="UTF-8"?>
<!DOCTYPE svg PUBLIC "-//W3C//DTD SVG 1.1 Tiny//EN" "http://www.w3.org/Graphics/SVG/1.1/DTD/svg11-tiny.dtd">
<svg width="16" height="16" viewBox="0 0 16 16">
<linearGradient id="_5" gradientUnits="userSpaceOnUse" x1="8.89" y1="3.04" x2="4.1" y2="5.37">
<stop stop-color="#CEE1EF" offset="0"/>
<stop stop-color="#A2C2DD" offset="0.5"/>
<stop stop-color="#496DA2" offset="1"/>
</linearGradient>
<path d="M7.388,2.271C5.996,2.133,3.993,3.315,3.9,6.61l1.165,0.2 c0.074-1.4,1.086-3.7,2.424-3.842c0.396-0.044,1.014-0.077,1.606,0.407C9.096,3.375,8.878,2.419,7.388,2.271z" fill="url(#_5)"/>
<path d="M6.325,9.855c-0.105,1.563-1.071,2.572-2.162,2.256 c-1.087-0.319-1.891-1.846-1.787-3.407c0.105-1.56,1.071-2.571,2.162-2.252C5.628,6.77,6.427,8.296,6.325,9.855z" fill="#496DA2"/>
<linearGradient id="_6" gradientUnits="userSpaceOnUse" x1="5.01" y1="4.9" x2="3.62" y2="11.27">
<stop stop-color="#CEE1EF" offset="0"/>
<stop stop-color="#A2C2DD" offset="0.5"/>
<stop stop-color="#496DA2" offset="1"/>
</linearGradient>
<path d="M3.545,6.363C3.118,6.538,2.438,7.604,2.367,8.65 c-0.104,1.563,0.709,3.141,1.796,3.46c0.423,0.122,0.825,0.047,1.168-0.182c-1.495,0.54-3.472-3.269-1.259-5.402L3.545,6.363z" fill="url(#_6)"/>
<path d="M12.615,8.292c-0.212-3.181-1.057-5.533-3.243-6.413 C7.998,1.326,6.809,1.539,5.5,2.366c0,0,1.481-0.373,2.437-0.045c1.961,0.672,2.93,3.877,3.021,5.705 c-0.668,0.23-1.295,0.824-1.688,1.72c-0.703,1.619-0.383,3.564,0.722,4.343c1.102,0.78,2.569,0.104,3.276-1.515 C13.958,10.991,13.657,9.102,12.615,8.292z" fill="#A2C2DD"/>
<linearGradient id="_7" gradientUnits="userSpaceOnUse" x1="10.61" y1="8.66" x2="10.52" y2="14.3">
<stop stop-color="#CEE1EF" offset="0"/>
<stop stop-color="#A2C2DD" offset="0.5"/>
<stop stop-color="#496DA2" offset="1"/>
</linearGradient>
<path d="M12.181,14.006c-0.686,0.482-1.489,0.592-2.158,0.118 c-1.104-0.779-1.456-2.76-0.753-4.378c0.354-0.808,0.931-1.393,1.523-1.667l0.577,0.361 C9.335,10.192,9.704,14.871,12.181,14.006z" fill="url(#_7)"/>
<linearGradient id="_8" gradientUnits="userSpaceOnUse" x1="5.35" y1="3.41" x2="9.4" y2="7.91">
<stop stop-color="#CEE1EF" offset="0"/>
<stop stop-color="#A2C2DD" offset="1"/>
</linearGradient>
<path d="M11.363,8.481c-0.188-2.877-1.328-5.8-3.257-6.345 C5.426,1.375,3.948,3.083,3.545,6.363l0.527,0.163c0.17-2.525,1.301-4.599,3.794-3.947c1.692,0.443,2.449,3.271,2.676,5.685 L11.363,8.481z" fill="url(#_8)"/>
</svg>