<?xml version="1.0" encoding="UTF-8"?>
<!DOCTYPE svg PUBLIC "-//W3C//DTD SVG 1.1 Tiny//EN" "http://www.w3.org/Graphics/SVG/1.1/DTD/svg11-tiny.dtd">
<svg baseProfile="tiny" height="16px" version="1.1" viewBox="-0.02 -0.029 16 16" width="16px" x="0px" xmlns="http://www.w3.org/2000/svg" xmlns:xlink="http://www.w3.org/1999/xlink" y="0px">
<rect fill="none" height="16" width="16"/>
<polygon fill="#A2C2DD" points="7.234,7.223 6.468,7.585 11.48,8.652 12.49,8.159 "/>
<polygon fill="#CEE1EF" points="6.965,6.975 7.356,7.026 6.284,7.541 11.48,8.652 12.946,7.924 13.73,8.07 11.931,9.189   5.294,7.736 "/>
<path d="M5.33,7.723c0,0-1.696,0.762-1.719,1.992c-0.003,0.159-0.009,0.979-0.009,0.979l6.828,2.104l1.521-3.605  L5.33,7.723z" fill="#A2C2DD"/>
<path d="M13.73,8.07l-1.813,1.122c0,0-1.337,0.859-1.471,2.014c-0.029,0.245-0.016,1.592-0.016,1.592l3.06-1.895  L13.73,8.07z" fill="#496DA2"/>
<polygon fill="#496DA2" points="4.642,10.733 4.617,9.733 9.344,11.03 9.343,12.137 "/>
<polygon fill="#CEE1EF" points="13.227,4.78 8.463,4.227 7.559,7.431 11.98,8.221 "/>
<polygon fill="#496DA2" points="13.227,4.78 11.98,8.221 12.279,8.123 13.221,5.419 "/>
<polygon fill="#496DA2" points="6.284,7.541 6.571,7.601 7.316,7.237 7.356,7.026 "/>
<path d="M10.338,10.145c0,0.271-0.246,0.491-0.55,0.491c-0.305,0-0.551-0.22-0.551-0.491s0.246-0.492,0.551-0.492  C10.092,9.652,10.338,9.873,10.338,10.145z" fill="#496DA2"/>
<polygon fill="#A2C2DD" points="2.774,11.087 6.922,12.496 6.911,12.852 2.781,11.37 "/>
<polygon fill="#CEE1EF" points="5.157,10.141 2.773,11.087 6.914,12.491 9.09,11.25 "/>
<polygon fill="#496DA2" points="6.914,12.491 9.092,11.255 9.048,11.602 6.911,12.852 "/>
</svg>
