<?xml version="1.0" encoding="UTF-8"?>
<!DOCTYPE svg PUBLIC "-//W3C//DTD SVG 1.1 Tiny//EN" "http://www.w3.org/Graphics/SVG/1.1/DTD/svg11-tiny.dtd">
<svg width="16" height="16" viewBox="0 0 16 16">
<polygon fill="#A2C2DD" points="9.726,14.442 4.13,12.736 3.566,4.131 9.705,5.273 "/>
<polygon fill="#CEE1EF" points="12.479,4.039 6.432,3.059 3.521,4.131 9.657,5.273 "/>
<path d="M10.163,3.842l0.396-2.03c-0.509-0.355-1.241-0.322-1.777,0l0.301,2.119 C8.9,4.015,8.782,4.123,8.796,4.235c0.025,0.193,0.465,0.389,0.921,0.342c0.455-0.045,0.753-0.32,0.725-0.512 C10.43,3.967,10.323,3.889,10.163,3.842z" fill="#496DA2"/>
<polygon fill="#496DA2" points="9.726,14.442 12.102,12.962 12.479,4.039 9.691,5.262 "/>
<polygon fill="#496DA2" points="4.477,5.16 4.695,8.257 8.898,9.294 8.884,6.06 "/>
</svg>