<?xml version="1.0" encoding="UTF-8" standalone="no"?>
<!DOCTYPE svg PUBLIC "-//W3C//DTD SVG 1.1 Tiny//EN" "http://www.w3.org/Graphics/SVG/1.1/DTD/svg11-tiny.dtd">
<svg xmlns="http://www.w3.org/2000/svg" xmlns:xlink="http://www.w3.org/1999/xlink" baseProfile="tiny" height="60" viewBox="0 0 60 60" width="60">
<g>
<rect fill="none" height="60" width="60"/>
<linearGradient gradientUnits="userSpaceOnUse" id="SVGID_1_" x1="30" x2="30" y1="2" y2="58.0739">
<stop offset="0" style="stop-color:#F2F2F2"/>
<stop offset="0.2545" style="stop-color:#4F88BD"/>
<stop offset="0.7333" style="stop-color:#0055A3"/>
<stop offset="1" style="stop-color:#64AEFB"/>
</linearGradient>
<path d="M30,2C18.142,2,9.945,7.973,9.945,30.001C9.945,52.03,18.145,58,30,58  c11.857,0,20.054-5.97,20.054-27.999C50.054,7.973,41.857,2,30,2z" fill="url(#SVGID_1_)"/>
<linearGradient gradientUnits="userSpaceOnUse" id="SVGID_2_" x1="30" x2="30" y1="3.2363" y2="56.7637">
<stop offset="0" style="stop-color:#36B5FF"/>
<stop offset="0.1576" style="stop-color:#36B5FF"/>
<stop offset="0.8242" style="stop-color:#1B66D8"/>
<stop offset="1" style="stop-color:#2183E0"/>
</linearGradient>
<path d="M30,56.764c-9.305,0-18.818-3.179-18.818-26.763C11.182,6.415,20.695,3.236,30,3.236  c9.306,0,18.817,3.179,18.817,26.765C48.817,53.585,39.306,56.764,30,56.764L30,56.764z" fill="url(#SVGID_2_)"/>
<linearGradient gradientUnits="userSpaceOnUse" id="SVGID_3_" x1="17.6924" x2="42.3066" y1="30.2065" y2="30.2065">
<stop offset="0" style="stop-color:#0B81FA"/>
<stop offset="1" style="stop-color:#47DAFA"/>
</linearGradient>
<path d="M42.307,20.702L28.242,6.305v18.972l-7.728-7.912l-2.822,2.881l9.712,9.961l-9.712,9.96l2.815,2.879  l7.734-7.91v18.974l14.064-14.396l-9.287-9.506L42.307,20.702z M36.689,20.734l-4.49,4.59l-0.006-9.188L36.689,20.734z   M36.689,39.686l-4.496,4.584l0.006-9.185L36.689,39.686z" fill="url(#SVGID_3_)"/>
<path d="M29.479,32.103l-8.971,9.175l-1.087-1.112l9.71-9.959l-9.71-9.96l1.091-1.113l8.967,9.179V9.339l11.1,11.363  l-9.287,9.504l9.287,9.506l-11.1,11.362V32.103z M30.955,47.297l7.464-7.61l-7.454-7.636L30.955,47.297z M30.965,28.353l7.454-7.618  l-7.464-7.632L30.965,28.353z" fill="#FFFFFF"/>
<rect fill="none" height="60" width="60"/>
</g>
</svg>
